<svg width="633" height="381" viewBox="0 0 633 381" fill="none" xmlns="http://www.w3.org/2000/svg">
<path d="M615.104 10.8214C602.264 2.90438 581.794 0.0116025 555.198 1.90444C528.638 3.79485 496.359 10.4393 460.457 21.2674C388.674 42.9171 302.837 81.1598 220.028 130.885C137.22 180.61 73.2398 232.33 36.713 275.719C18.4443 297.419 7.09902 316.97 3.64088 333.106C0.178233 349.262 4.66086 361.755 17.5007 369.672C30.3405 377.589 50.8099 380.481 77.4049 378.588C103.965 376.698 136.243 370.054 172.146 359.226C243.929 337.576 329.766 299.334 412.574 249.608C495.383 199.883 559.363 148.164 595.89 104.775C614.158 83.0739 625.504 63.5225 628.963 47.3872C632.425 31.2311 627.943 18.7384 615.104 10.8214Z" stroke="url(#paint0_linear_661_81)" stroke-width="3.46562"/>
<defs>
<linearGradient id="paint0_linear_661_81" x1="562.019" y1="167.842" x2="420.274" y2="-44.2988" gradientUnits="userSpaceOnUse">
<stop stop-color="#4ED5E2"/>
<stop offset="1" stop-opacity="0"/>
</linearGradient>
</defs>
</svg>
