<svg width="666" height="359" viewBox="0 0 666 359" fill="none" xmlns="http://www.w3.org/2000/svg">
<path d="M12.8998 11.031C23.6294 3.55127 42.6268 0.637894 68.6499 2.27124C94.5739 3.89842 126.875 10.0107 163.425 20.0767C236.497 40.2013 326.116 76.0082 414.908 122.745C503.701 169.481 574.743 218.24 617.839 259.261C639.395 279.78 653.894 298.301 660.173 313.624C666.475 329.006 664.364 340.807 653.635 348.287C642.905 355.767 623.907 358.681 597.884 357.048C571.96 355.42 539.659 349.309 503.11 339.243C430.037 319.118 340.418 283.311 251.626 236.574C162.833 189.838 91.7922 141.08 48.6958 100.058C27.1396 79.5396 12.6395 61.0174 6.3612 45.6946C0.0588793 30.3131 2.1702 18.5109 12.8998 11.031Z" stroke="url(#paint0_linear_661_80)" stroke-width="3.46562"/>
<defs>
<linearGradient id="paint0_linear_661_80" x1="32.6224" y1="109.476" x2="86.3528" y2="-5.45733" gradientUnits="userSpaceOnUse">
<stop stop-color="#4ED5E2"/>
<stop offset="1" stop-opacity="0"/>
</linearGradient>
</defs>
</svg>
