<svg width="23" height="23" viewBox="0 0 23 23" fill="none" xmlns="http://www.w3.org/2000/svg">
<path d="M12.7642 0.78282C12.5337 0.30443 12.0466 0 11.5117 0C10.9768 0 10.494 0.30443 10.2592 0.78282L7.46277 6.53654L1.21761 7.45853C0.695729 7.53681 0.260829 7.90213 0.0999163 8.40226C-0.0609966 8.9024 0.0694732 9.45472 0.443487 9.82439L4.97514 14.3082L3.90529 20.6447C3.81831 21.1666 4.03576 21.6972 4.46631 22.0059C4.89686 22.3147 5.46658 22.3538 5.93627 22.106L11.516 19.1269L17.0958 22.106C17.5655 22.3538 18.1352 22.3191 18.5658 22.0059C18.9963 21.6928 19.2138 21.1666 19.1268 20.6447L18.0526 14.3082L22.5842 9.82439C22.9583 9.45472 23.0931 8.9024 22.9278 8.40226C22.7625 7.90213 22.332 7.53681 21.8101 7.45853L15.5606 6.53654L12.7642 0.78282Z" fill="#D5D2C5"/>
</svg>
