<svg width="23" height="23" viewBox="0 0 23 23" fill="none" xmlns="http://www.w3.org/2000/svg">
<path d="M12.732 0.78282C12.5015 0.30443 12.0144 0 11.4795 0C10.9445 0 10.4618 0.30443 10.2269 0.78282L7.43054 6.53654L1.18538 7.45853C0.663503 7.53681 0.228603 7.90213 0.0676898 8.40226C-0.0932231 8.9024 0.0372467 9.45472 0.41126 9.82439L4.94292 14.3082L3.87306 20.6447C3.78608 21.1666 4.00353 21.6972 4.43408 22.0059C4.86463 22.3147 5.43435 22.3538 5.90404 22.106L11.4838 19.1269L17.0636 22.106C17.5333 22.3538 18.103 22.3191 18.5335 22.0059C18.9641 21.6928 19.1815 21.1666 19.0946 20.6447L18.0204 14.3082L22.552 9.82439C22.926 9.45472 23.0608 8.9024 22.8956 8.40226C22.7303 7.90213 22.2998 7.53681 21.7779 7.45853L15.5284 6.53654L12.732 0.78282Z" fill="#FACC15"/>
</svg>
