<svg width="708" height="307" viewBox="0 0 708 307" fill="none" xmlns="http://www.w3.org/2000/svg">
<circle cx="354" cy="-47" r="354" fill="url(#paint0_radial_1147_268)"/>
<mask id="mask0_1147_268" style="mask-type:alpha" maskUnits="userSpaceOnUse" x="120" y="-110" width="394" height="394">
<circle cx="317.292" cy="87.2585" r="196.611" fill="url(#paint1_linear_1147_268)"/>
</mask>
<g mask="url(#mask0_1147_268)">
<rect width="333.886" height="1.72108" transform="matrix(-4.37114e-08 1 1 4.37114e-08 184.838 -67.1136)" fill="url(#paint2_linear_1147_268)"/>
<rect width="333.886" height="1.72108" transform="matrix(-4.37114e-08 1 1 4.37114e-08 236.467 -67.1136)" fill="url(#paint3_linear_1147_268)"/>
<rect width="333.886" height="1.72108" transform="matrix(-4.37114e-08 1 1 4.37114e-08 288.1 -67.1136)" fill="url(#paint4_linear_1147_268)"/>
<rect width="333.886" height="1.72108" transform="matrix(-4.37114e-08 1 1 4.37114e-08 339.734 -67.1136)" fill="url(#paint5_linear_1147_268)"/>
<rect width="333.886" height="1.72108" transform="matrix(-4.37114e-08 1 1 4.37114e-08 391.365 -67.1136)" fill="url(#paint6_linear_1147_268)"/>
<rect width="333.886" height="1.72108" transform="matrix(-4.37114e-08 1 1 4.37114e-08 442.998 -67.1136)" fill="url(#paint7_linear_1147_268)"/>
<rect width="333.886" height="1.72108" transform="matrix(1 0 0 -1 147.834 229.77)" fill="url(#paint8_linear_1147_268)"/>
<rect width="333.886" height="1.72108" transform="matrix(1 0 0 -1 147.834 178.138)" fill="url(#paint9_linear_1147_268)"/>
<rect width="333.886" height="1.72108" transform="matrix(1 0 0 -1 147.834 126.506)" fill="url(#paint10_linear_1147_268)"/>
<rect width="333.886" height="1.72108" transform="matrix(1 0 0 -1 147.834 74.8741)" fill="url(#paint11_linear_1147_268)"/>
<rect width="333.886" height="1.72108" transform="matrix(1 0 0 -1 147.834 23.2422)" fill="url(#paint12_linear_1147_268)"/>
</g>
<defs>
<radialGradient id="paint0_radial_1147_268" cx="0" cy="0" r="1" gradientUnits="userSpaceOnUse" gradientTransform="translate(354 -22.8637) rotate(90) scale(329.864)">
<stop stop-color="#1168B5"/>
<stop offset="1" stop-color="#072D4F" stop-opacity="0"/>
</radialGradient>
<linearGradient id="paint1_linear_1147_268" x1="317.795" y1="-50.0171" x2="317.292" y2="283.869" gradientUnits="userSpaceOnUse">
<stop stop-color="#D9D9D9" stop-opacity="0"/>
<stop offset="1" stop-color="#737373" stop-opacity="0.22"/>
</linearGradient>
<linearGradient id="paint2_linear_1147_268" x1="0" y1="0.860539" x2="333.886" y2="0.860539" gradientUnits="userSpaceOnUse">
<stop offset="0.0384615" stop-color="#4ED5E2" stop-opacity="0"/>
<stop offset="0.509615" stop-color="#4ED5E2"/>
<stop offset="1" stop-color="#737373" stop-opacity="0"/>
</linearGradient>
<linearGradient id="paint3_linear_1147_268" x1="0" y1="0.860539" x2="333.886" y2="0.860539" gradientUnits="userSpaceOnUse">
<stop offset="0.0384615" stop-color="#4ED5E2" stop-opacity="0"/>
<stop offset="0.509615" stop-color="#4ED5E2"/>
<stop offset="1" stop-color="#737373" stop-opacity="0"/>
</linearGradient>
<linearGradient id="paint4_linear_1147_268" x1="0" y1="0.860539" x2="333.886" y2="0.860539" gradientUnits="userSpaceOnUse">
<stop offset="0.0384615" stop-color="#4ED5E2" stop-opacity="0"/>
<stop offset="0.509615" stop-color="#4ED5E2"/>
<stop offset="1" stop-color="#737373" stop-opacity="0"/>
</linearGradient>
<linearGradient id="paint5_linear_1147_268" x1="0" y1="0.860539" x2="333.886" y2="0.860539" gradientUnits="userSpaceOnUse">
<stop offset="0.0384615" stop-color="#4ED5E2" stop-opacity="0"/>
<stop offset="0.509615" stop-color="#4ED5E2"/>
<stop offset="1" stop-color="#737373" stop-opacity="0"/>
</linearGradient>
<linearGradient id="paint6_linear_1147_268" x1="0" y1="0.860539" x2="333.886" y2="0.860539" gradientUnits="userSpaceOnUse">
<stop offset="0.0384615" stop-color="#4ED5E2" stop-opacity="0"/>
<stop offset="0.509615" stop-color="#4ED5E2"/>
<stop offset="1" stop-color="#737373" stop-opacity="0"/>
</linearGradient>
<linearGradient id="paint7_linear_1147_268" x1="0" y1="0.860539" x2="333.886" y2="0.860539" gradientUnits="userSpaceOnUse">
<stop offset="0.0384615" stop-color="#4ED5E2" stop-opacity="0"/>
<stop offset="0.509615" stop-color="#4ED5E2"/>
<stop offset="1" stop-color="#737373" stop-opacity="0"/>
</linearGradient>
<linearGradient id="paint8_linear_1147_268" x1="0" y1="0.860539" x2="333.886" y2="0.860539" gradientUnits="userSpaceOnUse">
<stop offset="0.0384615" stop-color="#4ED5E2" stop-opacity="0"/>
<stop offset="0.509615" stop-color="#4ED5E2"/>
<stop offset="1" stop-color="#737373" stop-opacity="0"/>
</linearGradient>
<linearGradient id="paint9_linear_1147_268" x1="0" y1="0.860539" x2="333.886" y2="0.860539" gradientUnits="userSpaceOnUse">
<stop offset="0.0384615" stop-color="#4ED5E2" stop-opacity="0"/>
<stop offset="0.509615" stop-color="#4ED5E2"/>
<stop offset="1" stop-color="#737373" stop-opacity="0"/>
</linearGradient>
<linearGradient id="paint10_linear_1147_268" x1="0" y1="0.860539" x2="333.886" y2="0.860539" gradientUnits="userSpaceOnUse">
<stop offset="0.0384615" stop-color="#4ED5E2" stop-opacity="0"/>
<stop offset="0.509615" stop-color="#4ED5E2"/>
<stop offset="1" stop-color="#737373" stop-opacity="0"/>
</linearGradient>
<linearGradient id="paint11_linear_1147_268" x1="0" y1="0.860539" x2="333.886" y2="0.860539" gradientUnits="userSpaceOnUse">
<stop offset="0.0384615" stop-color="#4ED5E2" stop-opacity="0"/>
<stop offset="0.509615" stop-color="#4ED5E2"/>
<stop offset="1" stop-color="#737373" stop-opacity="0"/>
</linearGradient>
<linearGradient id="paint12_linear_1147_268" x1="0" y1="0.860539" x2="333.886" y2="0.860539" gradientUnits="userSpaceOnUse">
<stop offset="0.0384615" stop-color="#4ED5E2" stop-opacity="0"/>
<stop offset="0.509615" stop-color="#4ED5E2"/>
<stop offset="1" stop-color="#737373" stop-opacity="0"/>
</linearGradient>
</defs>
</svg>
